<?xml version="1.0" standalone="no"?>
<!DOCTYPE svg PUBLIC "-//W3C//DTD SVG 20010904//EN"
 "http://www.w3.org/TR/2001/REC-SVG-20010904/DTD/svg10.dtd">
<svg version="1.0" xmlns="http://www.w3.org/2000/svg"
 width="1024.000000pt" height="1024.000000pt" viewBox="0 0 1024.000000 1024.000000"
 preserveAspectRatio="xMidYMid meet">
<metadata>
Created by potrace 1.14, written by Peter Selinger 2001-2017
</metadata>
<g transform="translate(0.000000,1024.000000) scale(0.100000,-0.100000)"
fill="#000000" stroke="none">
<path d="M3016 7825 c-87 -31 -126 -85 -126 -175 0 -70 23 -115 79 -155 l43
-30 223 -5 c243 -5 247 -6 280 -70 7 -14 154 -448 326 -965 270 -809 314 -950
317 -1012 3 -58 -3 -100 -34 -225 -45 -182 -48 -277 -15 -372 31 -87 62 -134
130 -199 72 -69 159 -112 256 -127 47 -7 440 -10 1210 -8 1270 3 1167 -3 1233
72 75 85 47 219 -59 281 -33 20 -55 20 -1200 23 l-1167 2 -26 27 c-33 32 -34
74 -5 186 25 100 32 113 72 137 31 19 60 20 1062 20 978 0 1032 1 1070 19 23
10 52 32 67 49 33 40 538 1549 538 1608 0 44 -28 111 -56 136 -57 50 20 48
-1618 48 -1056 0 -1533 3 -1553 11 -59 22 -69 43 -168 338 -52 157 -104 300
-115 318 -10 18 -39 42 -62 55 -42 22 -51 23 -353 25 -248 2 -318 0 -349 -12z"/>
<path d="M4300 4290 c-115 -24 -229 -119 -271 -228 -17 -42 -23 -77 -23 -137
0 -113 28 -181 108 -261 79 -79 147 -106 261 -106 112 0 182 28 255 101 66 66
99 129 110 208 30 221 -118 408 -337 427 -32 3 -78 1 -103 -4z"/>
<path d="M6534 4290 c-108 -22 -209 -103 -260 -206 -26 -53 -29 -69 -29 -159
0 -90 3 -106 29 -159 39 -79 102 -140 183 -178 58 -27 77 -31 153 -31 71 0 96
4 143 26 105 48 166 113 206 220 68 185 -38 407 -226 472 -53 18 -149 26 -199
15z"/>
<path d="M4100 3454 c0 -4 14 -22 31 -42 27 -30 30 -41 26 -75 -3 -21 -15 -49
-27 -62 -36 -38 -96 -46 -340 -43 -212 3 -228 2 -271 -19 -138 -64 -210 -219
-146 -314 70 -105 193 -105 264 0 57 85 31 191 -46 191 -42 0 -47 -15 -17 -51
19 -22 26 -42 26 -73 0 -51 -20 -81 -64 -96 -97 -32 -149 75 -91 189 51 101
153 150 297 142 l26 -1 -19 -50 c-29 -75 -50 -218 -57 -380 l-7 -145 -37 -6
c-62 -10 -115 -56 -91 -80 6 -6 19 -2 35 11 31 24 69 39 86 33 9 -4 12 -41 12
-141 0 -204 -27 -307 -92 -355 -26 -20 -28 -20 -47 -3 -26 23 -34 63 -22 104
13 43 5 62 -25 62 -29 0 -64 -51 -64 -93 0 -43 29 -96 61 -112 66 -35 150 -9
206 63 44 58 63 150 64 317 l1 135 60 0 c123 0 198 83 153 169 -16 32 -33 41
-79 41 -46 0 -50 -9 -16 -40 38 -36 38 -64 0 -102 -27 -27 -36 -30 -71 -25
-22 3 -42 7 -43 9 -2 1 0 109 5 238 6 217 17 308 40 335 5 7 38 8 96 3 137
-12 230 11 289 73 25 27 29 38 29 91 0 53 -3 62 -28 84 -19 17 -40 24 -68 24
-21 0 -39 -3 -39 -6z"/>
<path d="M6205 3377 c-28 -43 -60 -139 -126 -372 l-64 -230 -5 241 c-6 266 -8
277 -64 272 l-31 -3 -12 -118 c-28 -261 -157 -787 -230 -932 -22 -43 -54 -75
-75 -75 -9 0 -26 12 -35 27 -26 40 -23 229 6 336 27 104 72 192 97 192 41 0
23 -169 -28 -268 -21 -42 -14 -63 16 -51 55 21 101 274 60 332 -22 32 -83 30
-124 -4 -36 -31 -74 -101 -95 -177 l-15 -52 3 63 c3 86 -18 83 -28 -5 -8 -75
-44 -209 -77 -286 -19 -44 -23 -48 -34 -32 -22 30 -25 115 -10 290 12 141 12
175 1 201 -25 61 -92 51 -136 -19 -25 -41 -74 -194 -90 -280 -7 -37 -14 -65
-16 -64 -6 7 -33 214 -33 261 0 40 11 71 60 170 75 153 103 258 98 373 -3 75
-6 87 -27 104 -28 23 -67 17 -98 -17 -103 -112 -149 -624 -80 -899 10 -42 18
-53 49 -70 38 -20 38 -20 57 0 15 14 24 48 35 123 9 56 23 128 32 160 19 65
63 157 71 148 3 -3 0 -88 -7 -189 -7 -101 -9 -210 -6 -241 12 -92 70 -135 132
-97 29 18 52 75 82 201 7 30 9 22 14 -52 9 -146 61 -219 143 -204 18 4 44 15
57 25 68 54 139 274 251 781 l14 65 0 -135 c1 -161 13 -220 46 -220 51 0 59
17 137 288 29 100 55 180 57 178 3 -2 -1 -90 -7 -195 -8 -116 -10 -284 -7
-424 8 -328 36 -439 121 -481 30 -15 46 -17 75 -10 43 11 50 39 9 39 -89 2
-121 154 -121 575 0 187 7 338 22 513 12 136 19 252 16 257 -12 20 -64 11 -80
-13z m-1021 -185 c11 -84 -37 -279 -103 -422 l-21 -45 0 45 c-1 155 77 495
109 476 5 -3 11 -27 15 -54z m293 -739 c-3 -10 -5 -4 -5 12 0 17 2 24 5 18 2
-7 2 -21 0 -30z"/>
<path d="M7130 3240 c-24 -24 -64 -101 -80 -157 -12 -39 -15 -42 -53 -45 -55
-4 -62 -28 -9 -28 l40 0 -14 -62 c-21 -94 -30 -383 -14 -471 22 -128 65 -187
136 -187 46 0 67 19 92 85 19 50 61 238 55 248 -9 15 -19 -10 -43 -108 -39
-157 -75 -210 -112 -165 -53 65 -72 289 -44 495 25 176 15 160 99 160 67 0 72
1 75 23 3 21 1 22 -25 15 -33 -9 -100 -10 -108 -1 -9 9 13 84 42 145 13 29 22
57 18 63 -10 16 -33 12 -55 -10z"/>
<path d="M4439 2817 c-66 -44 -109 -159 -108 -287 0 -139 51 -210 147 -210 79
0 137 55 187 179 22 53 23 54 36 32 8 -12 44 -44 81 -71 87 -64 99 -107 37
-123 -26 -7 -69 33 -69 62 0 22 -38 38 -65 27 -37 -14 -4 -95 49 -120 70 -33
188 -5 202 48 12 48 -4 74 -81 130 -77 57 -99 86 -110 147 -11 58 36 149 76
149 9 0 29 -15 44 -32 27 -31 27 -36 22 -115 -6 -77 -5 -83 13 -83 27 0 50 39
57 98 7 63 0 92 -32 131 -101 120 -281 7 -261 -164 5 -49 3 -62 -23 -114 -42
-83 -90 -131 -130 -131 -57 0 -74 16 -91 87 -7 30 -6 32 24 39 64 13 112 82
136 198 13 65 1 119 -30 136 -31 17 -75 11 -111 -13z m95 -90 c-3 -99 -68
-219 -110 -203 -35 14 7 209 58 263 20 21 23 22 37 8 11 -11 16 -33 15 -68z"/>
<path d="M4053 2794 c-16 -25 -18 -53 -18 -266 0 -259 1 -261 55 -256 25 3 25
4 31 128 8 138 19 199 50 264 25 54 53 81 75 72 31 -12 6 -146 -27 -146 -5 0
-9 9 -9 20 0 24 -28 27 -37 4 -3 -9 3 -24 15 -37 18 -17 26 -19 48 -12 43 16
67 57 72 125 11 151 -92 148 -164 -4 l-34 -71 3 100 c2 96 1 100 -20 103 -15
2 -27 -6 -40 -24z"/>
<path d="M6711 2806 c-17 -20 -31 -122 -31 -226 0 -72 -4 -93 -28 -139 -15
-30 -32 -56 -39 -58 -16 -6 -26 119 -22 269 l4 123 -25 3 c-14 2 -39 9 -56 17
-46 21 -98 4 -128 -43 -61 -93 -93 -323 -56 -397 39 -77 112 -68 154 18 20 40
27 46 32 31 15 -50 26 -65 49 -76 38 -17 74 0 99 47 l21 40 3 -60 c4 -69 15
-87 51 -83 26 3 26 3 33 123 11 205 68 363 123 341 30 -11 11 -146 -21 -146
-8 0 -14 9 -14 20 0 11 -7 20 -15 20 -18 0 -20 -41 -3 -58 35 -35 101 15 117
89 17 79 -6 139 -55 139 -35 0 -71 -38 -109 -115 -24 -47 -34 -60 -31 -40 3
17 6 62 8 100 3 69 3 70 -23 73 -14 2 -31 -4 -38 -12z m-220 -78 c16 -29 13
-62 -11 -163 -24 -104 -59 -197 -71 -190 -15 10 -10 172 7 238 15 57 49 137
59 137 2 0 10 -10 16 -22z"/>
</g>
</svg>
